# xmcd
#
# Track frame offsets: 
#        150
#        17400
#        35875
#        52040
#        78787
#        97385
#        111475
#        126757
#        146712
#        162855
#        179252
#        193752
#        217332
#        230522
#        247617
#        259350
#        272062
#        285515
#
# Disc length: 3991 seconds
#
# Revision: 0
# Processed by: cddbd v1.5.2PL0 Copyright (c) Steve Scherf et al.
# Submitted via: ExactAudioCopy v0.99pb1
#
DISCID=110f9512
DTITLE=Barbara Blue and The Phantom Blues Band - By Popular Demand
DYEAR=2007
DGENRE=Blues
TTITLE0=Trouble With A Capital 'T'
TTITLE1=Back By Popular Demand
TTITLE2=Toolbox Blues
TTITLE3=Don't Lead Me on
TTITLE4=Road Blues
TTITLE5=Can't Get Your Lovin' Off My Mind
TTITLE6=Sell My Jewelry
TTITLE7=From The Delta To The Golden Gates
TTITLE8=Cheatin' Blues
TTITLE9=Drunken Angel
TTITLE10=Brought Together By The Blues
TTITLE11=Turtle Blues
TTITLE12=Moonlight Over Memphis
TTITLE13=If I Had You
TTITLE14=Red Cadillac and The Blues
TTITLE15=You Can't Stop My Love
TTITLE16=No No Baby
TTITLE17=Old Man's Moving Out
EXTD=
EXTT0=
EXTT1=
EXTT2=
EXTT3=
EXTT4=
EXTT5=
EXTT6=
EXTT7=
EXTT8=
EXTT9=
EXTT10=
EXTT11=
EXTT12=
EXTT13=
EXTT14=
EXTT15=
EXTT16=
EXTT17=
PLAYORDER=
